<svg id="Layer_1" data-name="Layer 1" xmlns="http://www.w3.org/2000/svg" viewBox="0 0 65 65"><defs><style>.cls-1{fill:#fff;}</style></defs><title>logos-1</title><circle cx="32.5" cy="32.5" r="25"/><path class="cls-1" d="M40.85,40.61v4.56c-0.65.26-1.32,0.58-2,.81a12.57,12.57,0,0,1-8.2.12,7.83,7.83,0,0,1-1.69-.85,5.15,5.15,0,0,1-2.47-4.59c0-2,0-4,0-6q0-2.1,0-4.2c0-.16,0-0.32,0-0.54H23.34V25.87c3.61-1.21,5.33-3.91,5.74-7.6h4.09v7.15H39.9v4.51H33.25a2.83,2.83,0,0,0,0,.34q0,4,0,7.91c0,0.42.05,0.83,0.07,1.25a2.36,2.36,0,0,0,2.17,2.43A6.47,6.47,0,0,0,40.12,41C40.35,40.9,40.57,40.77,40.85,40.61Z"/></svg>