<svg id="Layer_1" data-name="Layer 1" xmlns="http://www.w3.org/2000/svg" width="65" height="65" viewBox="0 0 65 65"><defs><style>.cls-1{fill:#fff;}</style></defs><title>logos-1</title><circle cx="32.5" cy="32.5" r="25"/><path class="cls-1" d="M24.23,17.72a3.74,3.74,0,0,1,1.33,1.81q0.68,1.22,1.37,2.43c0.43,0.75,1,1.5,1.38,2.29a1.37,1.37,0,0,1-.45,1.63,17.67,17.67,0,0,1-1.6,1.41c-0.52.44-1.56,1.09-1.59,1.86a4.7,4.7,0,0,0,1,2.05,26.29,26.29,0,0,0,1.49,2.31,23.11,23.11,0,0,0,7.5,6.34,1.6,1.6,0,0,0,1.82.23,9.12,9.12,0,0,0,1.61-1.77,7.43,7.43,0,0,1,1.45-1.5c0.84-.58,1.51.06,2.23,0.51,1.4,0.88,2.88,1.65,4.33,2.45,0.72,0.4,1.33.74,1.21,1.66a10.44,10.44,0,0,1-.58,2.37c-0.56,1.4-2.26,2.31-3.58,2.86a7.84,7.84,0,0,1-4.91.39,34,34,0,0,1-5-1.82,19.06,19.06,0,0,1-4.32-2.61,36.47,36.47,0,0,1-7.17-7.42,20.93,20.93,0,0,1-2.58-5,15,15,0,0,1-1.42-5.73,9,9,0,0,1,1.88-4.83,3.57,3.57,0,0,1,1.88-1.45,9.29,9.29,0,0,1,2.75-.5C24.56,17.86,24,17.72,24.23,17.72Z"/></svg>