<svg id="Layer_1" data-name="Layer 1" xmlns="http://www.w3.org/2000/svg" viewBox="0 0 65 65"><defs><style>.cls-1{fill:#fff;fill-rule:evenodd;}</style></defs><title>logos-1</title><circle cx="32.5" cy="32.5" r="25"/><path class="cls-1" d="M42.68,30.46h-2.3a8.15,8.15,0,1,1-15.76,0h-2.3v11.2a1,1,0,0,0,1,1H41.66a1,1,0,0,0,1-1V30.46Zm0-7.13a1,1,0,0,0-1-1H38.61a1,1,0,0,0-1,1v3.06a1,1,0,0,0,1,1h3.05a1,1,0,0,0,1-1V23.34ZM32.5,27.41a5.09,5.09,0,1,0,5.09,5.09,5.09,5.09,0,0,0-5.09-5.09M42.68,45.74H22.32a3.05,3.05,0,0,1-3.05-3.06V22.32a3.05,3.05,0,0,1,3.05-3.05H42.68a3.05,3.05,0,0,1,3.05,3.05V42.68a3.05,3.05,0,0,1-3.05,3.06"/></svg>