<svg id="Layer_1" data-name="Layer 1" xmlns="http://www.w3.org/2000/svg" width="65" height="65" viewBox="0 0 65 65"><defs><style>.cls-1{fill:#fff;}</style></defs><title>logos-1</title><circle cx="32.5" cy="32.5" r="25"/><path class="cls-1" d="M24.67,19.53A2.63,2.63,0,1,1,22,22.16,2.65,2.65,0,0,1,24.67,19.53Z"/><path class="cls-1" d="M26.2,41.44H23.11a0.73,0.73,0,0,1-.73-0.73V27.54a0.73,0.73,0,0,1,.73-0.73H26.2a0.73,0.73,0,0,1,.73.73V40.72A0.73,0.73,0,0,1,26.2,41.44Z"/><path class="cls-1" d="M44,31.44a5,5,0,0,0-5-5H38.19a4.45,4.45,0,0,0-3.89,2.3h0V27.11a0.3,0.3,0,0,0-.3-0.3H30.1a0.3,0.3,0,0,0-.3.3v14a0.3,0.3,0,0,0,.3.3H34a0.3,0.3,0,0,0,.3-0.3V33a2.57,2.57,0,0,1,2.52-2.58A2.55,2.55,0,0,1,39.44,33v8.14a0.3,0.3,0,0,0,.3.3h3.95a0.3,0.3,0,0,0,.3-0.3v-9.7h0Z"/></svg>