<svg id="Layer_1" data-name="Layer 1" xmlns="http://www.w3.org/2000/svg" width="65" height="65" viewBox="0 0 65 65"><defs><style>.cls-1{fill:#fff;}</style></defs><title>logos-1</title><circle cx="32.5" cy="32.5" r="25"/><path class="cls-1" d="M32.44,35.26a3.13,3.13,0,0,1-1.95-.86q-5-5-10.09-10.08a0.6,0.6,0,0,1-.11-0.85A2.72,2.72,0,0,1,22.78,22H42.15a2.73,2.73,0,0,1,2.49,1.48,0.6,0.6,0,0,1-.12.85q-3.2,3.18-6.39,6.38c-1.18,1.18-2.36,2.35-3.53,3.54A3.28,3.28,0,0,1,32.44,35.26Z"/><path class="cls-1" d="M32.45,43h-9.8a2.86,2.86,0,0,1-1.94-.78,0.39,0.39,0,0,1,0-.66q3.45-3.44,6.89-6.89a0.31,0.31,0,0,1,.54,0c0.55,0.55,1.1,1.1,1.67,1.63a4.14,4.14,0,0,0,5.62-.25c0.43-.47.9-0.9,1.34-1.36a0.35,0.35,0,0,1,.61,0q3.42,3.44,6.86,6.86a0.41,0.41,0,0,1,0,.72,2.84,2.84,0,0,1-1.91.75h-9.8Z"/><path class="cls-1" d="M45,39.63l-0.43-.4-5.87-5.86c-0.23-.22-0.3-0.38,0-0.64,2-2,4-4,6.06-6.05A2.91,2.91,0,0,1,45,26.48V39.63Z"/><path class="cls-1" d="M20,39.66v-13a2.93,2.93,0,0,1,.31.23l5.93,5.92c0.24,0.24.3,0.4,0,.68-2,1.94-3.92,3.9-5.87,5.85C20.26,39.41,20.15,39.5,20,39.66Z"/></svg>