<svg id="Layer_1" data-name="Layer 1" xmlns="http://www.w3.org/2000/svg" viewBox="0 0 65 65"><defs><style>.cls-1{fill:#fff;}</style></defs><title>logos-1</title><circle cx="32.5" cy="32.5" r="25"/><path class="cls-1" d="M30.35,31.22l0.42,0.07a3.22,3.22,0,0,1,2.37,1.95,6.31,6.31,0,0,1,.53,2.46A7.36,7.36,0,0,1,33.43,38a5,5,0,0,1-3.31,3.44,7.57,7.57,0,0,1-2.66.47H17.23a1.4,1.4,0,0,1,0-.23q0-9.68,0-19.37l0.27-.06h9.75a7.85,7.85,0,0,1,2.15.26,4.71,4.71,0,0,1,3.6,4.14,5.33,5.33,0,0,1-.13,2.22,3.24,3.24,0,0,1-2.29,2.28Zm-8.54,7.14,0.31,0H27a5,5,0,0,0,.68,0,1.91,1.91,0,0,0,1.69-1.52,4.07,4.07,0,0,0,0-2.06,2.06,2.06,0,0,0-2.06-1.55c-1.71,0-3.41,0-5.12,0l-0.31,0C21.73,33.47,21.73,38.12,21.81,38.36Zm0-8.26,0.27,0h5a1.52,1.52,0,0,0,1.18-.42A1.64,1.64,0,0,0,28.64,29a4.72,4.72,0,0,0,.07-1.71,2.11,2.11,0,0,0-.2-0.67,1.25,1.25,0,0,0-1.18-.77H22a1.76,1.76,0,0,0-.25,0A38.57,38.57,0,0,0,21.81,30.11Z"/><path class="cls-1" d="M48.77,35.81l-0.45,0H39.09l-0.41,0c0,0.15,0,.28,0,0.4a2.89,2.89,0,0,0,2.44,2.82A4.65,4.65,0,0,0,44,38.82a1.93,1.93,0,0,0,1.21-1.53,0.86,0.86,0,0,1,0-.13,0.38,0.38,0,0,1,0-.07h3.41a1.85,1.85,0,0,1,0,.29,4.53,4.53,0,0,1-2.1,3.83,6.91,6.91,0,0,1-2.8,1A11.11,11.11,0,0,1,39.44,42a6.18,6.18,0,0,1-4-3,7.58,7.58,0,0,1-.92-2.76,8.77,8.77,0,0,1,1.13-5.76,6.36,6.36,0,0,1,4.55-3.14,9.23,9.23,0,0,1,3.85.06,5.72,5.72,0,0,1,4.27,3.78,9.83,9.83,0,0,1,.56,4.28A2.64,2.64,0,0,1,48.77,35.81Zm-3.82-2.73a0.72,0.72,0,0,0,0-.18A7.36,7.36,0,0,0,44.74,32a2.44,2.44,0,0,0-1.49-1.57,3.49,3.49,0,0,0-2.73.11,3.42,3.42,0,0,0-1.85,2.41,0.65,0.65,0,0,0,0,.17C38.9,33.15,44.72,33.15,44.95,33.07Z"/><path class="cls-1" d="M45.82,25.84c-0.23.08-7.85,0.08-8.07,0a9.43,9.43,0,0,1,0-2.41h8a2.36,2.36,0,0,1,0,.32q0,0.91,0,1.81A2,2,0,0,1,45.82,25.84Z"/></svg>