<?xml version="1.0" encoding="utf-8"?>
<!-- Generator: Adobe Illustrator 23.0.1, SVG Export Plug-In . SVG Version: 6.00 Build 0)  -->
<svg version="1.1" baseProfile="basic" id="Layer_1"
	 xmlns="http://www.w3.org/2000/svg" xmlns:xlink="http://www.w3.org/1999/xlink" x="0px" y="0px" viewBox="0 0 90.6 50.8"
	 xml:space="preserve">
<style type="text/css">
	.st0{fill:#494949;}
</style>
<title>Artboard 1</title>
<path class="st0" d="M34.3,50.8V22c0-3.3-1.4-5.3-4.6-5.3c-5.6,0-7.7,7.6-7.7,19.2v15H0V1.1h15.6l4.3,17.3C22.5,6.3,28.3,0,38.3,0
	C49,0,54.9,6.5,56.1,18.4C57.5,8.5,62.9,0,72.6,0c12.2,0,17.9,8.5,17.9,23.4v27.5h-22V22c0-3.3-1.4-5.3-4.6-5.3
	c-5.6,0-7.7,7.6-7.7,19.2v15H34.3V50.8z"/>
</svg>
