<svg id="Layer_1" data-name="Layer 1" xmlns="http://www.w3.org/2000/svg" width="90.65" height="103.7" viewBox="0 0 90.65 103.7"><defs><style>.cls-1{fill:#0076b0;}.cls-2{fill:#3fbdee;}</style></defs><title>mv2-03</title><polygon class="cls-1" points="90.47 80.21 90.64 80.21 90.45 0 73.78 0.04 73.76 0.15 73.61 0.15 73.59 0.27 73.43 0.27 73.41 0.39 73.26 0.39 73.24 0.5 73.09 0.5 73.07 0.62 72.92 0.62 72.9 0.73 72.75 0.73 72.73 0.85 72.58 0.85 72.56 0.97 72.41 0.97 72.39 1.08 72.24 1.08 72.22 1.2 72.07 1.2 72.05 1.31 71.9 1.31 71.88 1.43 71.73 1.43 71.71 1.55 71.56 1.55 71.53 1.66 71.38 1.66 71.36 1.78 71.21 1.78 71.19 1.9 71.04 1.9 71.02 2.01 70.87 2.01 70.85 2.13 70.7 2.13 70.68 2.24 70.53 2.24 70.51 2.36 70.36 2.36 70.34 2.48 70.19 2.48 70.17 2.59 70.02 2.59 70 2.71 69.85 2.71 69.82 2.82 69.68 2.83 69.65 2.94 69.51 2.94 69.48 3.06 69.33 3.06 69.31 3.17 69.16 3.17 69.14 3.29 68.99 3.29 68.97 3.41 68.82 3.41 68.8 3.52 68.65 3.52 68.63 3.64 68.48 3.64 68.46 3.76 68.31 3.76 68.29 3.87 68.14 3.87 68.12 3.99 67.97 3.99 67.95 4.1 67.8 4.1 67.77 4.22 67.63 4.22 67.6 4.34 67.45 4.34 67.43 4.45 67.28 4.45 67.26 4.57 67.11 4.57 67.09 4.68 66.94 4.69 66.92 4.8 66.77 4.8 66.75 4.92 66.6 4.92 66.58 5.03 66.43 5.03 66.41 5.15 66.26 5.15 66.24 5.26 66.09 5.26 66.07 5.38 65.92 5.38 65.9 5.5 65.74 5.5 65.72 5.61 65.57 5.61 65.55 5.73 65.4 5.73 65.38 5.85 65.23 5.85 65.21 5.96 65.06 5.96 65.04 6.08 64.89 6.08 64.87 6.19 64.72 6.19 64.7 6.31 64.55 6.31 64.53 6.43 64.38 6.43 64.36 6.54 64.21 6.54 64.19 6.66 64.04 6.66 64.01 6.78 63.87 6.78 63.84 6.89 63.7 6.89 63.67 7.01 63.52 7.01 63.5 7.12 63.35 7.12 63.33 7.24 63.18 7.24 63.16 7.36 63.01 7.36 62.99 7.47 62.84 7.47 62.82 7.59 62.67 7.59 62.65 7.71 62.5 7.71 62.48 7.82 62.33 7.82 62.31 7.94 62.16 7.94 62.13 8.05 61.99 8.05 61.96 8.17 61.82 8.17 61.79 8.29 61.64 8.29 61.62 8.4 61.47 8.4 61.45 8.52 61.3 8.52 61.28 8.63 61.13 8.64 61.11 8.75 60.96 8.75 60.94 8.87 60.79 8.87 60.77 8.98 60.62 8.98 60.6 9.1 60.45 9.1 60.43 9.21 60.28 9.21 60.26 9.33 60.11 9.33 60.09 9.45 59.93 9.45 59.91 9.56 59.76 9.56 59.74 9.68 59.59 9.68 59.57 9.8 59.42 9.8 59.4 9.91 59.25 9.91 59.23 10.03 59.08 10.03 59.06 10.14 58.91 10.15 58.89 10.26 58.74 10.26 58.72 10.38 58.57 10.38 58.55 10.49 58.4 10.49 58.38 10.61 58.23 10.61 58.21 10.73 58.06 10.73 58.03 10.84 57.88 10.84 57.86 10.96 57.71 10.96 57.69 11.07 57.54 11.07 57.52 11.19 57.37 11.19 57.35 11.31 57.2 11.31 57.18 11.42 57.03 11.42 57.01 11.54 56.86 11.54 56.84 11.65 56.69 11.65 56.67 11.77 56.52 11.77 56.5 11.89 56.35 11.89 56.32 12 56.18 12 56.15 12.12 56.01 12.12 55.98 12.24 55.83 12.24 55.81 12.35 55.66 12.35 55.64 12.47 55.49 12.47 55.47 12.58 55.32 12.58 55.3 12.7 55.15 12.7 55.13 12.82 54.98 12.82 54.96 12.93 54.81 12.93 54.79 13.05 54.64 13.05 54.62 13.17 54.47 13.17 54.45 13.28 54.31 13.28 51.69 0.09 34.34 0.14 34.34 0.25 34.17 0.25 34.17 0.37 34 0.37 34 0.48 33.83 0.48 33.83 0.6 33.66 0.6 33.66 0.72 33.49 0.72 33.49 0.83 33.32 0.83 33.32 0.95 33.15 0.95 33.15 1.06 32.98 1.06 32.98 1.18 32.81 1.18 32.81 1.3 32.64 1.3 32.64 1.41 32.47 1.41 32.47 1.53 32.29 1.53 32.29 1.64 32.12 1.64 32.12 1.76 31.95 1.76 31.95 1.88 31.78 1.88 31.78 1.99 31.61 1.99 31.61 2.11 31.44 2.11 31.44 2.23 31.27 2.23 31.27 2.34 31.1 2.34 31.1 2.46 30.93 2.46 30.93 2.57 30.76 2.57 30.76 2.69 30.59 2.69 30.59 2.81 30.41 2.81 30.41 2.92 30.24 2.92 30.24 3.04 30.07 3.04 30.07 3.15 29.9 3.16 29.9 3.27 29.73 3.27 29.73 3.39 29.56 3.39 29.56 3.5 29.39 3.5 29.39 3.62 29.22 3.62 29.22 3.74 29.05 3.74 29.05 3.85 28.88 3.85 28.88 3.97 28.7 3.97 28.71 4.08 28.53 4.08 28.54 4.2 28.36 4.2 28.36 4.32 28.19 4.32 28.19 4.43 28.02 4.43 28.02 4.55 27.85 4.55 27.85 4.67 27.68 4.67 27.68 4.78 27.51 4.78 27.51 4.9 27.34 4.9 27.34 5.01 27.17 5.01 27.17 5.13 27 5.13 27 5.25 26.83 5.25 26.83 5.36 26.66 5.36 26.66 5.48 26.48 5.48 26.48 5.6 26.31 5.6 26.31 5.71 26.14 5.71 26.14 5.83 25.97 5.83 25.97 5.94 25.8 5.94 25.8 6.06 25.63 6.06 25.63 6.18 25.46 6.18 25.46 6.29 25.29 6.29 25.29 6.41 25.12 6.41 25.12 6.52 24.95 6.53 24.95 6.64 24.77 6.64 24.77 6.76 24.6 6.76 24.6 6.87 24.43 6.87 24.43 6.99 24.26 6.99 24.26 7.1 24.09 7.11 24.09 7.22 23.92 7.22 23.92 7.34 23.75 7.34 23.75 7.45 23.58 7.45 23.58 7.57 23.41 7.57 23.41 7.69 23.24 7.69 23.24 7.8 23.07 7.8 23.07 7.92 22.9 7.92 22.9 8.03 22.72 8.03 22.73 8.15 22.55 8.15 22.55 8.27 22.38 8.27 22.38 8.38 22.21 8.38 22.21 8.5 22.04 8.5 22.04 8.62 21.87 8.62 21.87 8.73 21.7 8.73 21.7 8.85 21.53 8.85 21.53 8.96 21.36 8.96 21.36 9.08 21.19 9.08 21.19 9.2 21.02 9.2 21.02 9.31 20.84 9.31 20.84 9.43 20.67 9.43 20.67 9.55 20.5 9.55 20.5 9.66 20.33 9.66 20.33 9.78 20.16 9.78 20.16 9.89 19.99 9.89 19.99 10.01 19.82 10.01 19.82 10.13 19.65 10.13 19.65 10.24 19.48 10.24 19.48 10.36 19.31 10.36 19.31 10.47 19.14 10.48 19.14 10.59 18.97 10.59 18.97 10.71 18.79 10.71 18.79 10.82 18.62 10.82 18.62 10.94 18.45 10.94 18.45 11.05 18.28 11.06 18.28 11.17 18.11 11.17 18.11 11.29 17.94 11.29 17.94 11.4 17.77 11.4 17.77 11.52 17.6 11.52 17.6 11.64 17.43 11.64 17.43 11.75 17.26 11.75 17.26 11.87 17.09 11.87 17.09 11.99 16.91 11.99 16.91 12.1 16.74 12.1 16.74 12.22 16.57 12.22 16.57 12.33 16.4 12.33 16.4 12.45 16.23 12.45 16.23 12.57 16.06 12.57 16.06 12.68 15.89 12.68 15.89 12.8 15.72 12.8 15.72 12.91 15.55 12.92 15.55 13.03 15.38 13.03 15.38 13.15 15.2 13.15 15.21 13.26 15.04 13.26 15.04 13.38 14.86 13.38 14.86 13.49 14.69 13.5 14.69 13.61 14.52 13.61 14.52 13.73 14.35 13.73 14.35 13.84 14.18 13.84 14.18 13.96 14.01 13.96 14.01 14.08 13.84 14.08 13.84 14.19 13.67 14.19 13.67 14.31 13.5 14.31 13.5 14.42 13.33 14.42 13.33 14.54 13.16 14.54 13.16 14.66 12.98 14.66 12.98 14.77 12.81 14.77 12.81 14.89 12.64 14.89 12.64 15.01 12.47 15.01 12.47 15.12 12.3 15.12 12.3 15.24 12.13 15.24 12.13 15.35 11.96 15.35 11.96 15.47 11.79 15.47 11.79 15.59 11.62 15.59 11.62 15.7 11.45 15.7 11.45 15.82 11.27 15.82 11.27 15.94 11.1 15.94 11.1 16.05 10.93 16.05 10.93 16.17 10.76 16.17 10.76 16.28 10.59 16.28 10.59 16.4 10.42 16.4 10.42 16.52 10.25 16.52 10.25 16.63 10.08 16.63 10.08 16.75 9.91 16.75 9.91 16.86 9.74 16.87 9.74 16.98 9.57 16.98 9.57 17.1 9.39 17.1 9.4 17.21 9.22 17.21 9.23 17.33 9.05 17.33 9.05 17.44 8.88 17.45 8.88 17.56 8.71 17.56 8.71 17.68 8.54 17.68 8.54 17.79 8.37 17.79 8.37 17.91 8.2 17.91 8.2 18.03 8.03 18.03 8.03 18.14 7.86 18.14 7.86 18.26 7.69 18.26 7.69 18.37 7.52 18.37 7.52 18.49 7.34 18.49 7.34 18.61 7.17 18.61 7.17 18.72 7 18.72 7 18.84 6.83 18.84 6.83 18.95 6.66 18.96 6.66 19.07 6.49 19.07 6.49 19.19 6.32 19.19 6.32 19.3 6.15 19.3 6.15 19.42 5.98 19.42 5.98 19.54 5.81 19.54 5.81 19.65 5.64 19.65 5.64 19.77 5.46 19.77 5.46 19.88 5.29 19.88 5.29 20 5.12 20 5.12 20.12 4.95 20.12 4.95 20.23 4.78 20.23 4.78 20.35 4.61 20.35 4.61 20.47 4.44 20.47 4.44 20.58 4.27 20.58 4.27 20.7 4.1 20.7 4.1 20.81 3.93 20.82 3.93 20.93 3.76 20.93 3.76 21.05 3.59 21.05 3.59 21.16 3.41 21.16 3.41 21.28 3.24 21.28 3.24 21.4 3.07 21.4 3.07 21.51 2.9 21.51 2.9 21.63 2.73 21.63 2.73 21.74 2.56 21.74 2.56 21.86 2.39 21.86 2.39 21.98 2.22 21.98 2.22 22.09 2.05 22.09 2.05 22.21 1.88 22.21 1.88 22.32 1.71 22.33 1.71 22.44 1.53 22.44 1.53 22.56 1.36 22.56 1.36 22.67 1.19 22.67 1.19 22.79 1.02 22.79 1.02 22.9 0.85 22.91 0.85 23.02 0.68 23.02 0.68 23.14 0.51 23.14 0.51 23.25 0.34 23.25 0.34 23.37 0.17 23.37 0.17 23.49 0 23.49 0.2 103.7 12.29 103.67 12.29 103.56 12.46 103.56 12.46 103.44 12.63 103.44 12.63 103.32 12.8 103.32 12.8 103.21 12.97 103.21 12.97 103.09 13.14 103.09 13.14 102.98 13.31 102.98 13.31 102.86 13.48 102.86 13.48 102.74 13.65 102.74 13.65 102.63 13.82 102.63 13.82 102.51 13.99 102.51 13.99 102.4 14.17 102.4 14.16 102.28 14.34 102.28 14.34 102.16 14.51 102.16 14.51 102.05 14.68 102.05 14.68 101.93 14.85 101.93 14.85 101.82 15.02 101.81 15.02 101.7 15.19 101.7 15.19 101.58 15.36 101.58 15.36 101.47 15.53 101.47 15.53 101.35 15.7 101.35 15.7 101.23 15.87 101.23 15.87 101.12 16.05 101.12 16.05 101 16.22 101 16.22 100.89 16.39 100.88 16.39 100.77 16.56 100.77 16.56 100.65 16.73 100.65 16.73 100.54 16.9 100.54 16.9 100.42 17.07 100.42 17.07 100.3 17.24 100.3 17.24 100.19 17.41 100.19 17.41 100.07 17.58 100.07 17.58 99.96 17.75 99.96 17.75 99.84 17.92 99.84 17.92 99.72 18.1 99.72 18.1 99.61 18.27 99.61 18.27 99.49 18.44 99.49 18.44 99.38 18.61 99.38 18.61 99.26 18.78 99.26 18.78 99.14 18.95 99.14 18.95 99.03 19.12 99.03 19.12 98.91 19.29 98.91 19.29 98.79 19.46 98.79 19.46 98.68 19.63 98.68 19.63 98.56 19.8 98.56 19.8 98.45 19.98 98.44 19.98 98.33 20.15 98.33 20.15 98.21 20.32 98.21 20.32 98.1 20.49 98.1 20.49 97.98 20.66 97.98 20.66 97.87 20.83 97.87 20.83 97.75 21 97.75 21 97.63 21.17 97.63 21.17 97.52 21.34 97.52 21.34 97.4 21.51 97.4 21.51 97.28 21.68 97.28 21.68 97.17 21.85 97.17 21.85 97.05 22.03 97.05 22.03 96.94 22.2 96.93 22.2 96.82 22.37 96.82 22.37 96.74 23.99 103.65 33.72 103.62 33.74 103.51 33.89 103.5 33.91 103.39 34.06 103.39 34.08 103.27 34.23 103.27 34.25 103.16 34.4 103.16 34.42 103.04 34.57 103.04 34.59 102.92 34.74 102.92 34.77 102.81 34.91 102.81 34.94 102.69 35.08 102.69 35.11 102.57 35.25 102.57 35.28 102.46 35.42 102.46 35.45 102.34 35.6 102.34 35.62 102.23 35.77 102.23 35.79 102.11 35.94 102.11 35.96 101.99 36.11 101.99 36.13 101.88 36.28 101.88 36.3 101.76 36.45 101.76 36.47 101.65 36.62 101.65 36.65 101.53 36.79 101.53 36.82 101.41 36.96 101.41 36.99 101.3 37.13 101.3 37.16 101.18 37.3 101.18 37.33 101.07 37.48 101.07 37.5 100.95 37.65 100.95 37.67 100.83 37.82 100.83 37.84 100.72 37.99 100.72 38.01 100.6 38.16 100.6 38.18 100.48 38.33 100.48 38.35 100.37 38.5 100.37 38.52 100.25 38.67 100.25 38.7 100.14 38.84 100.13 38.87 100.02 39.01 100.02 39.04 99.9 39.19 99.9 39.21 99.79 39.36 99.79 39.38 99.67 39.53 99.67 39.55 99.55 39.7 99.55 39.72 99.44 39.87 99.44 39.89 99.32 40.04 99.32 40.06 99.21 40.21 99.21 40.23 99.09 40.38 99.09 40.41 98.97 40.55 98.97 40.58 98.86 40.72 98.86 40.75 98.74 40.89 98.74 40.92 98.63 41.06 98.63 41.09 98.51 41.23 98.51 41.26 98.39 41.41 98.39 41.43 98.28 41.58 98.28 41.6 98.16 41.75 98.16 41.77 98.04 41.92 98.04 41.94 97.93 42.09 97.93 42.11 97.81 42.26 97.81 42.28 97.7 42.43 97.7 42.45 97.58 42.6 97.58 42.63 97.46 42.77 97.46 42.8 97.35 42.94 97.35 42.97 97.23 43.12 97.23 43.14 97.12 43.29 97.12 43.31 97 43.46 97 43.48 96.88 43.63 96.88 43.65 96.77 43.8 96.77 43.82 96.65 43.97 96.65 43.99 96.53 44.14 96.53 44.16 96.42 44.19 96.42 44.21 103.59 56.3 103.57 56.29 103.45 56.47 103.45 56.47 103.33 56.64 103.33 56.64 103.22 56.81 103.22 56.81 103.1 56.98 103.1 56.98 102.98 57.15 102.98 57.15 102.87 57.32 102.87 57.32 102.75 57.49 102.75 57.49 102.64 57.66 102.63 57.66 102.52 57.83 102.52 57.83 102.4 58 102.4 58 102.29 58.18 102.29 58.18 102.17 58.35 102.17 58.35 102.05 58.52 102.05 58.52 101.94 58.69 101.94 58.69 101.82 58.86 101.82 58.86 101.71 59.03 101.71 59.03 101.59 59.2 101.59 59.2 101.47 59.37 101.47 59.37 101.36 59.54 101.36 59.54 101.24 59.71 101.24 59.71 101.13 59.88 101.13 59.88 101.01 60.05 101.01 60.05 100.89 60.23 100.89 60.23 100.78 60.4 100.78 60.4 100.66 60.57 100.66 60.57 100.54 60.74 100.54 60.74 100.43 60.91 100.43 60.91 100.31 61.08 100.31 61.08 100.2 61.25 100.2 61.25 100.08 61.42 100.08 61.42 99.96 61.59 99.96 61.59 99.85 61.76 99.85 61.76 99.73 61.93 99.73 61.93 99.62 62.11 99.62 62.1 99.5 62.28 99.5 62.28 99.38 62.45 99.38 62.45 99.27 62.62 99.27 62.62 99.15 62.79 99.15 62.79 99.03 62.96 99.03 62.96 98.92 63.13 98.92 63.13 98.8 63.3 98.8 63.3 98.69 63.47 98.68 63.47 98.57 63.64 98.57 63.64 98.45 63.81 98.45 63.81 98.34 63.99 98.34 63.99 98.22 64.16 98.22 64.16 98.1 64.33 98.1 64.33 97.99 64.5 97.99 64.5 97.87 64.67 97.87 64.67 97.76 64.84 97.76 64.84 97.64 65.01 97.64 65.01 97.52 65.18 97.52 65.18 97.41 65.35 97.41 65.35 97.29 65.52 97.29 65.52 97.18 65.69 97.18 65.69 97.06 65.87 97.06 65.87 96.94 66.04 96.94 66.04 96.83 66.21 96.83 66.21 96.71 66.38 96.71 66.38 96.6 66.55 96.59 66.55 96.48 66.72 96.48 66.72 96.36 66.89 96.36 66.89 96.25 67.06 96.25 67.06 96.13 67.23 96.13 67.23 96.01 67.4 96.01 67.4 95.9 67.57 95.9 67.57 95.78 67.74 95.78 67.74 95.66 67.92 95.66 67.91 95.55 68.09 95.55 68.09 95.43 68.26 95.43 68.26 95.32 68.43 95.32 68.43 95.2 68.6 95.2 68.6 95.08 68.77 95.08 68.77 94.97 68.94 94.97 68.94 94.85 69.11 94.85 69.11 94.74 69.28 94.74 69.28 94.62 69.45 94.62 69.45 94.5 69.63 94.5 69.62 94.39 69.79 94.39 69.79 94.27 69.97 94.27 69.97 94.16 70.14 94.16 70.14 94.04 70.31 94.04 70.31 93.92 70.48 93.92 70.48 93.81 70.65 93.81 70.65 93.69 70.82 93.69 70.82 93.57 70.99 93.57 70.99 93.46 71.16 93.46 71.16 93.34 71.33 93.34 71.33 93.23 71.5 93.23 71.5 93.11 71.68 93.11 71.68 92.99 71.85 92.99 71.85 92.88 72.02 92.88 72.02 92.76 72.19 92.76 72.19 92.65 72.36 92.64 72.36 92.53 72.53 92.53 72.53 92.41 72.7 92.41 72.7 92.3 72.87 92.3 72.87 92.18 73.04 92.18 73.04 92.06 73.21 92.06 73.21 91.95 73.38 91.95 73.38 91.83 73.55 91.83 73.55 91.71 73.73 91.71 73.73 91.6 73.9 91.6 73.9 91.48 74.07 91.48 74.07 91.37 74.24 91.37 74.24 91.25 74.41 91.25 74.41 91.13 74.58 91.13 74.58 91.02 74.75 91.02 74.75 90.9 74.92 90.9 74.92 90.79 75.09 90.79 75.09 90.67 75.26 90.67 75.26 90.55 75.43 90.55 75.43 90.44 75.6 90.44 75.6 90.32 75.78 90.32 75.78 90.21 75.95 90.2 75.95 90.09 76.12 90.09 76.12 89.97 76.29 89.97 76.29 89.86 76.46 89.86 76.46 89.74 76.63 89.74 76.63 89.62 76.8 89.62 76.8 89.51 76.97 89.51 76.97 89.39 77.14 89.39 77.14 89.27 77.31 89.27 77.31 89.16 77.49 89.16 77.49 89.04 77.66 89.04 77.66 88.93 77.83 88.93 77.83 88.81 78 88.81 78 88.69 78.17 88.69 78.17 88.58 78.34 88.58 78.34 88.46 78.51 88.46 78.51 88.35 78.68 88.35 78.68 88.23 78.85 88.23 78.85 88.11 79.02 88.11 79.02 88 79.19 88 79.19 87.88 79.37 87.88 79.37 87.77 79.54 87.77 79.54 87.65 79.71 87.65 79.71 87.53 79.88 87.53 79.88 87.42 80.05 87.42 80.05 87.3 80.22 87.3 80.22 87.18 80.39 87.18 80.39 87.07 80.56 87.07 80.56 86.95 80.73 86.95 80.73 86.84 80.9 86.83 80.9 86.72 81.07 86.72 81.07 86.6 81.24 86.6 81.24 86.49 81.42 86.49 81.41 86.37 81.59 86.37 81.59 86.26 81.76 86.25 81.76 86.14 81.93 86.14 81.93 86.02 82.1 86.02 82.1 85.91 82.27 85.91 82.27 85.79 82.44 85.79 82.44 85.67 82.61 85.67 82.61 85.56 82.78 85.56 82.78 85.44 82.95 85.44 82.95 85.32 83.12 85.32 83.12 85.21 83.29 85.21 83.29 85.09 83.47 85.09 83.47 84.98 83.64 84.98 83.64 84.86 83.81 84.86 83.81 84.74 83.98 84.74 83.98 84.63 84.15 84.63 84.15 84.51 84.32 84.51 84.32 84.4 84.49 84.4 84.49 84.28 84.66 84.28 84.66 84.16 84.83 84.16 84.83 84.05 85 84.05 85 83.93 85.18 83.93 85.18 83.82 85.35 83.82 85.35 83.7 85.52 83.7 85.52 83.58 85.69 83.58 85.69 83.47 85.86 83.47 85.86 83.35 86.03 83.35 86.03 83.23 86.2 83.23 86.2 83.12 86.37 83.12 86.37 83 86.54 83 86.54 82.89 86.71 82.88 86.71 82.77 86.88 82.77 86.88 82.65 87.05 82.65 87.05 82.54 87.23 82.54 87.23 82.42 87.4 82.42 87.4 82.3 87.57 82.3 87.57 82.19 87.74 82.19 87.74 82.07 87.91 82.07 87.91 81.96 88.08 81.96 88.08 81.84 88.25 81.84 88.25 81.72 88.42 81.72 88.42 81.61 88.59 81.61 88.59 81.49 88.76 81.49 88.76 81.38 88.93 81.38 88.93 81.26 89.1 81.26 89.1 81.14 89.28 81.14 89.28 81.03 89.45 81.03 89.45 80.91 89.62 80.91 89.62 80.79 89.79 80.79 89.79 80.68 89.96 80.68 89.96 80.56 90.13 80.56 90.13 80.45 90.3 80.45 90.3 80.33 90.47 80.33 90.47 80.21"/><path class="cls-2" d="M66.31,93.47H54.22L54,13.29H71.35l11.41,57.6,10.7-57.7h16.67l0.2,80.22H98.24L98.11,43,87.74,93.42H78L66.19,43.19Z" transform="translate(-19.68 -13.15)"/></svg>